<svg xmlns="http://www.w3.org/2000/svg" version="1.0" viewBox="12 9.8 421.9 254.8"><g fill="#21e4e8" style="--darkreader-inline-fill:#2ca9ac;--darkreader-inline-stroke:none"><path d="M4013 12132c-108-34-209-142-311-336-155-295-138-283-404-288-625-14-1142-162-966-278 66-43 52-55-132-109-647-193-1232-771-1381-1366-13-52-34-96-46-98-13-1-43-4-67-7-150-16-395-211-420-335-6-31-19-61-29-67-23-14-22-279 1-323 10-19 29-62 41-95 59-157 261-288 452-293l106-2 34-93c86-229 252-483 457-698 129-135 466-397 485-378 32 33-24 113-134 193-410 299-741 939-566 1096l68 60 10-53c215-1103 1507-1550 2267-784 138 140 154 150 225 145 113-9 323 71 484 183 66 46 109 51 228 30 49-8 130-5 190 7 149 32 187 28 271-29 53-37 112-55 211-64 146-13 211-41 216-90 1-16 4-201 5-410 2-413 11-451 127-538 214-162 580 140 596 491 9 200-4 190 194 145 231-53 748-53 1018 0 334 65 328 99-15 78-196-13-222-18-148-29 50-8-76-10-280-6-347 7-544 32-680 86-72 29-9 27 122-4 102-24 711-25 736-1 5 4-124 8-286 8-293 0-555 27-612 63-24 15-21 17 10 10 106-25 350-35 350-15 0 12 13 22 29 22 15 0 40 11 55 25 108 104 263 152 476 148 116-3 233 2 260 10 346 103 441 141 590 235 91 58 277 204 287 227 10 22 63 18 63-5 0-37-113-160-225-246-32-24-71-56-87-70-15-15-28-19-29-10 0 9-9 0-21-19-11-19-33-35-48-35s-40-16-54-35c-46-61-307-163-493-191-23-3-48-13-56-20-7-8-50-15-95-16s-104-10-132-19c-78-27 188 0 350 35 391 86 778 332 1016 646 30 39 54 64 54 56s-47-70-104-139c-309-371-658-553-1236-644-35-5-28-8 23-10 405-15 1032 334 1304 727 182 265 182 268-7 255-136-10-139-9-193 55-30 35-67 77-82 92-33 33-30 35 145 69 258 50 480 136 444 172-6 5-184-5-397-23-545-47-883-2-1194 158-34 18-67 33-73 32-5 0-68 28-140 61-151 72-159 97-62 202 173 189 191 270 91 417-99 145-105 213-48 510 62 324-69 542-304 503-154-25-567-485-567-632 0-25-76-84-86-67-5 9-9 94-9 188 0 386-113 557-359 541-80-5-245-230-246-336 0-12-12-32-26-43-30-26-25-29-347 186-133 88-260 172-285 186-24 14-39 33-32 43 6 10 2 24-9 30-10 7-24 54-31 106-43 349-59 424-113 536-81 167-281 346-344 307-1-1-38-13-80-26zm181-111c126-77 211-319 246-701 51-559 57-1653 12-2044-11-90-9-100 13-66 159 252 350 274 454 52 52-112 81-130 81-51 0 133 143 861 230 1169 136 482 235 680 341 680 262 0 300-573 78-1180-108-295-179-537-162-554 5-5 37 5 70 23 34 17 78 31 99 31 32 0 47 36 94 235 140 597 311 952 611 1273 252 269 466 134 379-238-10-44-24-166-32-272l-13-192 76-84c106-117 101-167-30-329-156-192-266-227-406-129-42 30-57 33-64 12-13-41-111-504-111-524 0-9 40 20 90 65 94 87 131 96 255 62 50-14 85-40 105-79 29-56 31-56 90-27 106 53 222 2 260-114 90-270 236-296 680-119 257 103 327 109 393 33 227-265-680-790-1169-677-79 19-94 15-199-48-191-115-315-153-530-163l-195-10v-258c0-287-10-322-135-460-211-233-370-198-408 91-20 145 1 564 35 703 8 32-5 46-61 66-39 14-96 47-127 72-49 42-59 44-93 19-99-72-291 2-291 111 0 50 5 50-107 0-122-54-318-69-433-34l-90 27-103-84c-175-142-438-217-569-163-136 57-401 323-553 555-39 61-74 113-77 117-40 52-541-339-651-509-89-138-130-161-246-139-77 14-151 92-151 160 0 24-31 73-68 109-90 87-174 277-187 424l-11 118h-132c-72 0-150 5-172 10-32 8-50-11-90-95-213-447-887-294-888 202-1 344 366 592 658 443 43-22 79-40 80-40s2 43 3 95c1 353 480 479 659 173 32-54 48-112 48-175 0-106 3-107 128-54 217 93 229 109 352 457 95 269 140 363 298 619 210 342 251 377 373 319 104-50 106-102 19-382-121-386-210-720-194-734 8-7 66-18 130-24l117-11 67 141c108 224 170 258 339 188 116-49 243-489 179-624-38-79-34-92 76-260 109-166 109-165 129 87 52 665 10 1529-93 1905-77 279-79 264 69 514 190 320 275 378 425 287zm-665-636c8-41 31-127 52-191 20-63 43-167 50-230 17-157 63-354 98-422l29-57-234 77c-129 43-286 88-351 100-113 21-115 23-81 60 101 112-27 327-208 349-122 15-310-153-358-319-30-102-15-95-398-190-469-117-568-181-285-183l167-1-132-46c-157-55-148-49-345-190-114-81-177-112-230-115-40-2-88-7-107-11-37-9-176-128-177-151 0-8-22-31-49-50l-48-36 27 78c15 43 42 106 60 141 18 34 25 62 17 62-9 0-7 7 5 15s37 48 55 89c211 452 770 856 1334 964 158 30 189 80 63 102-125 21-168 61-95 89 163 62 658 137 925 139l203 2 13-75zm1265-424c338-218 402-272 391-330-5-28-18-51-27-51-10 0-18-17-18-38 0-31-30-161-134-572-8-33-15-139-15-235-1-96-6-173-13-170s-104 92-217 198l-204 193 33 64c31 60 31 770 1 1005-10 74-7 73 203-64zm-1554-439c0-8 11-16 25-17 31-3 76-15 115-31 17-7 75-23 129-34 126-28 151-49 151-131s-30-104-81-58c-22 19-39 29-39 21s-26 4-58 27c-32 22-73 41-91 41s-28 9-21 20c7 12-13 20-49 20-33 0-61 7-61 17 0 9-20 15-45 15-24-1-44 9-45 21 0 13-8 31-18 40-11 10-13 7-5-7 8-13 5-29-7-36-11-7-21-5-23 4-14 90-11 96 56 100 37 2 67-4 67-12zm-940-233c0-6-21-58-47-115-61-133-164-374-180-419-15-45-130-115-166-101-15 6-51 59-78 117-43 90-67 114-151 155l-101 47 67 50c194 145 656 332 656 266zm852-17c57-15 151-51 210-80 60-29 90-46 68-38-159 60-324-7-405-164-62-121-154-130-139-15 38 303 78 347 266 297zm430-195c29-20 60-29 68-21 9 8 11 4 4-8s10-41 37-65c42-36 49-60 49-161 0-168-48-182-91-26-47 169-70 223-128 291-51 61-38 59 61-10zm1117-416c58-51 43-100-27-86-32 6-46 18-37 32 8 13 11 39 8 58-7 45 1 44 56-4zm2121-213c394-216 866-326 1240-288 72 7 133 6 137-4 3-9 17-10 30-3s12 1-3-15c-17-19-80-29-190-32-90-3-227-15-304-27-230-36-643 24-758 110-63 47-109 66-204 83-28 5-89 23-135 40s-122 39-169 49c-177 37-165 119 17 119 64 0 122 9 129 20 21 35 76 21 210-52zm588-512c-38-61-287-13-319 61-33 73-18 75 151 15 97-34 172-68 168-76zm250 95c-6-6-38-13-70-17-33-4-71-13-84-21-13-9-24-5-24 7s-9 17-20 10-34-4-52 6c-22 12 14 19 114 22 80 2 142-1 136-7zm-6133-197c17-25 41-97 54-160 14-68 51-152 91-209 38-52 95-141 128-198 97-166 251-253 370-208 29 11 52 14 52 7 0-26 84 65 148 162 85 128 197 252 228 252 13 0 24 8 24 17s20 27 45 40 72 41 105 62c110 70 150 56 250-91 105-155 288-331 406-391l83-42-106-98c-690-634-1954-193-2100 732-25 160 139 253 222 125zm6785-54c-157-66-197-69-159-12 36 56 68 66 169 54l70-8-80-34zm-7263-385c18-72-16-71-52 1-20 41-22 65-7 90 24 37 31 26 59-91z" transform="matrix(.05 0 0 -.05 0 618)"/><path d="M3988 11805c-30-52-87-149-127-215-67-110-72-126-49-180 38-95 104-438 140-731 54-433-6-1899-77-1899-58 0-332 318-415 482l-87 172 43 61 44 61-43 187c-71 309-109 316-242 47-87-174-133-222-164-172-18 30-206 67-339 66l-125-1 85 331c48 182 118 426 157 542s67 215 63 219c-31 31-361-594-462-875-143-397-269-519-633-612-335-86-631 132-507 373 102 197 431 100 378-111-36-143-241-137-224 6 3 28-5 54-19 59-43 14-31-129 15-175 130-130 327 49 252 227-104 250-472 156-472-120 0-292 408-410 785-227 62 30 74 33 45 9-139-116-413-180-634-148-201 28-467 175-480 264-9 66-123 65-133-1-8-59-53-76-113-44-84 45-162-25-113-102 32-51 9-95-54-102-74-8-81-142-7-153 60-8 77-55 36-100-66-73 11-170 98-123 58 31 104 4 114-66 9-68 110-73 135-6 11 27 44 63 75 79 216 112 161 453-73 453-187 0-298-197-168-299 133-104 316 17 221 147-37 50-122 35-130-23-8-55-44-60-44-6 0 98 123 133 197 55 97-104 16-254-138-254-221 0-272 293-67 390 95 45 139 38 316-50 226-111 605-148 730-71 7 4 9-63 5-150-10-210 145-519 259-519 9 0 11-45 4-100-15-131 29-136 102-11 110 187 234 290 622 515 242 141 217 141 288 0 175-347 488-638 662-618 290 35 486 264 539 631 47 326 90 1758 55 1817-5 9-16 173-23 365-26 674-154 970-303 706zm122-176c49-24 68-48 76-95 5-35 17-86 25-114 14-44 12-47-16-24-25 20-42 21-74 5-44-24-51-16-65 69-8 49-76 65-106 24-13-18-33-25-47-16-19 12-12 31 26 77 28 33 51 71 51 83 0 31 53 27 130-9zm-114-237c251-131 290-531 68-689l-57-41-2 114c-1 63-2 158-2 211-1 53-15 118-32 144s-31 77-32 113c0 36-13 83-30 105-56 75-14 96 87 43zm259-755c-2-70-14-128-30-141-21-18-20-28 5-56 27-30 28-60 10-221-12-102-19-221-17-264 5-79-52-153-117-155-44 0-39 145 6 210 82 116 71 261-24 323-36 24-48 46-41 75 6 23 3 80-6 127-17 90 2 124 47 86 55-45 136 36 91 91-30 36-8 67 40 54 34-9 39-26 36-129zm-154-429c18-49-5-148-36-148-8 0-17 50-19 111-5 115 19 131 55 37zm106-533c-7-154-7-157-27-95-25 79-23 196 5 207 14 5 26 11 26 11 1 1-1-54-4-123zm-33-213c8-31 4-43-10-35-11 8-27 40-34 73s-20 56-28 51c-20-12-23 41-8 129 12 69 13 68 40-50 15-66 33-142 40-168zm-1577 139c3-25-3-55-15-67-38-38-24-54 48-54 38 0 115-17 170-38l100-38v59c0 48 12 64 69 88 97 41 100 38 49-46-195-324-276-412-482-517-131-67-133-65-105 87 13 74 31 170 38 213l14 77 118-12c65-7 150-25 188-41 42-18 75-22 82-11 34 56-104 119-263 119-106 0-112 2-102 45 6 25 17 79 25 121 15 82 55 91 66 15zm-377-219c0-35-23-87-55-125-30-37-39-55-20-40 44 35 44 28 3-193-47-259-55-271-95-155-55 162-30 297 75 411 26 28 53 75 60 105 17 72 32 70 32-3zm991 24c-5-13 0-30 11-38 12-7 16-33 10-58-9-35-2-48 30-56 30-8 38-22 30-49-8-24 2-51 26-73 21-19 50-63 63-98 14-35 51-88 82-118s57-63 57-75c0-11 8-21 17-21s40-20 67-45c28-25 69-58 92-74 23-15 38-34 34-41-5-7 3-15 16-17 149-20 238-57 159-64-61-7-117-23-135-41-14-14-7-16 20-8 36 12 37 11 5-10-47-30-187-18-180 15 3 14-11 25-30 25-20 0-67 37-105 83-39 45-86 97-105 114-19 18-35 39-35 48 0 27-107 181-165 239-30 30-55 61-55 69s-19 35-43 60c-43 46-25 167 25 167 10 0 18 17 18 37 0 47 15 61 62 57 22-1 35-13 29-28zm-1202-175c-56-133-15-408 68-459 23-14 11-177-17-229-17-32-138 102-193 214-38 77-62 376-33 414 12 16 181 125 200 128 2 1-9-30-25-68zM5481 10651c-146-449-243-897-360-1671-23-148-58-340-79-425-52-220-3-216 112 10 139 272 147 276 133 65-14-226 76-330 288-330 43 0 48-7 37-51-58-228-95-842-55-904 20-33 198 134 212 199 5 25 12 187 16 360 8 369-7 340 161 311 229-39 553 53 743 210 56 47 62 48 130 20 245-103 963 135 1083 359 33 62 20 60-194-33-326-140-524-165-684-88-96 47-204 190-204 271 0 85-67 48-208-115-156-179-159-181-201-100-44 84-38 158 20 259 50 88 44 121-23 122-30 0-202-186-232-251-24-52-171-59-221-12-34 33 208 1068 287 1227 64 128 112 175 90 88-25-101 10-311 63-374 69-82 109-73 211 47l90 104-68 76c-49 54-69 96-71 150-7 157 6 341 35 503 42 231 19 249-123 97-304-326-424-601-609-1398-57-246-116-465-132-487-15-22-42-60-60-85-30-41-30-49-2-92 79-121 4-162-94-52-143 157-150 200-58 312 105 127 176 247 146 247-38 0-203-119-315-227-57-55-107-97-111-92-21 25 170 780 256 1009 153 411 178 571 128 841-33 184-48 172-137-100zm720-2176c80-65 138-45 265 88 110 116 152 130 154 54 0-8 23-42 52-75l51-62-51-19c-272-104-533-119-707-42-58 25-105 53-105 61 0 103 26 135 114 145 50 6 105 25 123 44 31 30 34 26 47-63 9-62 29-108 57-131zM4652 9180c-73-82-89-127-50-151 27-17-39-88-169-184-235-173-264-287-86-335 232-63 433 9 433 155v84l110-109 110-109v84c0 102-72 300-182 498-95 173-76 166-166 67zm56-321c20-34 31-66 26-72-17-17-158-46-223-47h-59l82 60c45 33 87 74 93 90 18 45 41 36 81-31zM7710 7976c-68-24-190-110-190-134 0-43 205 26 268 89 65 65 33 84-78 45zM6675 7806c36-5 94-5 130 0 36 4 7 8-65 8-71 0-101-4-65-8zM1660 7702c0-30 257-269 328-305 191-100 972-188 972-110 0 20-48 30-175 39-327 24-692 140-970 311-145 89-155 93-155 65z" transform="matrix(.05 0 0 -.05 0 618)"/></g></svg>